<?xml version="1.0" encoding="UTF-8"?>
<svg id="Layer_1" xmlns="http://www.w3.org/2000/svg" version="1.1" viewBox="0 0 196.73 196.73">
  <!-- Generator: Adobe Illustrator 30.2.1, SVG Export Plug-In . SVG Version: 2.1.1 Build 1)  -->
  <circle cx="98.37" cy="98.37" r="98.37" fill="#3ccef1"/>
  <circle cx="98.37" cy="98.37" r="82.97" fill="#fff"/>
  <g>
    <g>
      <path d="M70.74,74.29c-3.29,0-6.59.33-9.88.97,8.59-15.08,14.65-21.23,21.26-32.52C39.84,64.26,14.24,96.32,9.55,121.92c-4.93,26.9,7.76,47.63,34.07,47.63s53.7-21.33,61.19-47.63c7.49-26.3-7.76-47.63-34.07-47.63h0ZM79.26,121.95c-5.46,15.29-19.46,26.41-31.27,24.84-11.82-1.57-16.97-15.24-11.52-30.52,5.45-15.29,19.45-26.41,31.27-24.84,11.81,1.57,16.97,15.24,11.52,30.52Z" fill="#3ccef1"/>
      <path d="M176.34,42.74l-15.36,26.83h-86.6l16.17-23.44c1.46-2.12,3.88-3.39,6.46-3.39h79.33Z" fill="#3ccef1"/>
      <path d="M196.05,42.74s-21.24,32.19-57.1,86.5c-23.71,35.9-58.73,49.4-65.88,51.07-1.15.27-1.96-1.09-1.18-1.97,4.42-4.94,14.39-17.41,30.91-44.88,28.82-47.92,36.24-63.89,36.24-63.89l15.35-26.83h41.66Z" fill="#3ccef1"/>
    </g>
    <g>
      <path d="M63.91,62.61c-3.29,0-6.59.33-9.88.97,8.59-15.08,14.65-21.23,21.26-32.52C33.01,52.58,7.41,84.64,2.72,110.24c-4.93,26.9,7.76,47.63,34.07,47.63s53.7-21.33,61.19-47.63c7.49-26.3-7.76-47.63-34.07-47.63h0ZM72.43,110.27c-5.46,15.29-19.46,26.41-31.27,24.84-11.82-1.57-16.97-15.24-11.52-30.52,5.45-15.29,19.45-26.41,31.27-24.84,11.81,1.57,16.97,15.24,11.52,30.52Z" fill="#0c2457"/>
      <path d="M169.51,31.06l-15.36,26.83h-86.6l16.17-23.44c1.46-2.12,3.88-3.39,6.46-3.39h79.33Z" fill="#0c2457"/>
      <path d="M189.22,31.06s-21.24,32.19-57.1,86.5c-23.71,35.9-58.73,49.4-65.88,51.07-1.15.27-1.96-1.09-1.18-1.97,4.42-4.94,14.39-17.41,30.91-44.88,28.82-47.92,36.24-63.89,36.24-63.89l15.35-26.83h41.66Z" fill="#0c2457"/>
    </g>
  </g>
</svg>